
 
http://www.torrentday.com   -    Your Key To The Scene.


Now TvTeam with [No-RAR] Releases.


(((((((((((((= Enjoy No RAR releases =))))))))))))))))))))

...................................NFO:....................................


Kick Ass TS XViD - IMAGiNE


Ripper ...........: IMAGiNE                                        Rating.......:8.5/10                             
Video Codec.......: XVID                                         Date......:23/04/10
Audio Codec.......:MP3                                           Date......:16/04/10
Audio Bitrate.....:128                                              Runtime.......:1h 50mn
Subtitles.........:NIL                                                 Language..........:ENGLISH
Resolution...... 720 x 304                                      URL..........:http://www.imdb.com/title/tt1250777/


DETAILS:

Video
ID                               : 0
Format                           : MPEG-4 Visual
Format profile                   : Advanced Simple@L5
Format settings, BVOP            : Yes
Format settings, QPel            : No
Format settings, GMC             : No warppoints
Format settings, Matrix          : Default (MPEG)
Muxing mode                      : Packed bitstream
Codec ID                         : XVID
Codec ID/Hint                    : XviD
Duration                         : 1h 50mn
Bit rate                         : 1 647 Kbps
Width                            : 720 pixels
Height                           : 304 pixels
Display aspect ratio             : 2.35
Frame rate                       : 23.976 fps
Resolution                       : 24 bits
Colorimetry                      : 4:2:0
Scan type                        : Progressive
Bits/(Pixel*Frame)               : 0.314
Stream size                      : 1.28 GiB (92%)
Writing library                  : XviD 1.2.1 (UTC 2008-12-04)

Audio
ID                               : 1
Format                           : MPEG Audio
Format version                   : Version 1
Format profile                   : Layer 3
Codec ID                         : 55
Codec ID/Hint                    : MP3
Duration                         : 1h 50mn
Bit rate mode                    : Constant
Bit rate                         : 128 Kbps
Channel(s)                       : 2 channels
Sampling rate                    : 44.1 KHz
Resolution                       : 16 bits
Stream size                      : 101 MiB (7%)
Alignment                        : Split accross interleaves
Interleave, duration             : 42 ms (1.00 video frame)
Interleave, preload duration     : 500 ms


NOTES:

IMAGiNE bringing you another release.....Kick Ass
First off thanks to a good friend for the source files ;-)  (cheers bro)
Well we had some nice line audio  already for this so it was a case of syncing it up to this new
video source and then do some tweaking on the video,making it a touch more brighter,sharper,colour and
also had to run a denoiser aswell.

Overall pretty nice looking and sounding TS we think so enjoy ;-)